<svg xmlns="http://www.w3.org/2000/svg" viewBox="0 0 32 33" width="32" height="33">
	<style>
		tspan { white-space:pre }
		.shp0 { opacity: 0.502;fill: #f5c506 } 
		.shp1 { fill: #f5c506 } 
	</style>
	<g id="footer">
		<g id="logo_copy">
			<path id="Shape 8 copy 4" class="shp0" d="M1.81 9.32L8.77 9.06L8.72 2.04L11.7 4.9L11.74 11.92L4.78 12.19L1.81 9.32ZM6.32 13.67L13.28 13.4L13.24 6.38L16.21 9.25L16.26 16.27L9.29 16.53L6.32 13.67ZM24.05 30.75L24.01 23.73L30.97 23.47L28 20.6L21.03 20.87L21.08 27.89L24.05 30.75ZM19.54 26.41L19.49 19.39L26.46 19.12L23.49 16.26L16.52 16.52L16.57 23.54L19.54 26.41ZM23.41 1.71L23.67 8.72L30.64 8.67L27.8 11.67L20.83 11.72L20.57 4.7L23.41 1.71ZM19.09 6.25L19.36 13.27L26.33 13.22L23.48 16.22L16.52 16.26L16.25 9.25L19.09 6.25ZM2.13 24.12L9.1 24.07L9.37 31.08L12.21 28.09L11.95 21.07L4.98 21.12L2.13 24.12ZM6.45 19.57L13.42 19.52L13.68 26.54L16.53 23.54L16.26 16.53L9.29 16.58L6.45 19.57Z" />
			<path id="Shape 8 copy 3" class="shp1" d="M1 21.54L5.85 16.5L1 11.46L5.11 11.46L9.96 16.5L5.11 21.54L1 21.54ZM7.24 21.54L12.09 16.5L7.24 11.46L11.36 11.46L16.21 16.5L11.36 21.54L7.24 21.54ZM31.78 21.54L26.93 16.5L31.78 11.46L27.67 11.46L22.82 16.5L27.67 21.54L31.78 21.54ZM25.54 21.54L20.69 16.5L25.54 11.46L21.42 11.46L16.57 16.5L21.42 21.54L25.54 21.54ZM11.38 1L16.39 5.88L21.39 1L21.39 5.14L16.39 10.03L11.38 5.14L11.38 1ZM11.38 7.29L16.39 12.17L21.39 7.29L21.39 11.43L16.39 16.32L11.38 11.43L11.38 7.29ZM11.38 32L16.39 27.12L21.39 32L21.39 27.86L16.39 22.97L11.38 27.86L11.38 32ZM11.38 25.71L16.39 20.83L21.39 25.71L21.39 21.57L16.39 16.68L11.38 21.57L11.38 25.71Z" />
		</g>
	</g>
</svg>