<svg xmlns="http://www.w3.org/2000/svg" viewBox="0 0 83 83" width="83" height="83">
	<style>
		tspan { white-space:pre }
		.shp0 { opacity: 0.502;fill: #f5c506 } 
		.shp1 { fill: #f5c506 } 
	</style>
	<g id="bnner+header">
		<g id="logo ">
			<path id="Shape 8 copy 4" fill-rule="evenodd" class="shp0" d="M2.17 22.29L20.95 21.57L20.83 2.78L28.85 10.45L28.97 29.24L10.19 29.95L2.17 22.29ZM14.34 33.92L33.12 33.21L33 14.42L41.02 22.09L41.14 40.88L22.36 41.59L14.34 33.92ZM54.15 71.99L54.03 53.2L72.81 52.49L80.83 60.15L62.04 60.87L62.17 79.66L54.15 71.99ZM41.98 60.36L41.86 41.56L60.64 40.85L68.66 48.52L49.87 49.23L50 68.02L41.98 60.36ZM60.43 1.89L61.15 20.67L79.94 20.55L72.27 28.57L53.48 28.69L52.77 9.91L60.43 1.89ZM48.8 14.06L49.51 32.85L68.3 32.72L60.63 40.74L41.84 40.86L41.13 22.08L48.8 14.06ZM10.73 53.87L29.52 53.75L30.23 72.53L22.57 80.55L21.85 61.77L3.06 61.89L10.73 53.87ZM22.37 41.7L41.16 41.58L41.87 60.36L34.2 68.38L33.49 49.6L14.7 49.72L22.37 41.7Z" />
			<path id="Shape 8 copy 3" fill-rule="evenodd" class="shp1" d="M-0.01 55L13.07 41.5L-0.01 28L11.09 28L24.17 41.5L11.09 55L-0.01 55ZM16.83 55L29.91 41.5L16.83 28L27.93 28L41.01 41.5L27.93 55L16.83 55ZM71.91 55L58.83 41.5L71.91 28L83.01 28L69.93 41.5L83.01 55L71.91 55ZM55.07 55L41.99 41.5L55.07 28L66.17 28L53.09 41.5L66.17 55L55.07 55ZM28 -0.01L41.5 13.07L55 -0.01L55 11.09L41.5 24.17L28 11.09L28 -0.01ZM28 16.83L41.5 29.91L55 16.83L55 27.93L41.5 41.01L28 27.93L28 16.83ZM28 71.91L41.5 58.83L55 71.91L55 83.01L41.5 69.93L28 83.01L28 71.91ZM28 55.07L41.5 41.99L55 55.07L55 66.17L41.5 53.09L28 66.17L28 55.07Z" />
		</g>
	</g>
</svg>